<?xml version="1.0" encoding="utf-8"?>
<!-- Generator: Adobe Illustrator 27.1.1, SVG Export Plug-In . SVG Version: 6.00 Build 0)  -->
<svg version="1.1" id="Layer_1" xmlns="http://www.w3.org/2000/svg" xmlns:xlink="http://www.w3.org/1999/xlink" x="0px" y="0px"
	 viewBox="0 0 252 133" style="enable-background:new 0 0 252 133;" xml:space="preserve">
<style type="text/css">
	.st0{fill:none;stroke:#FF0000;stroke-width:1.048;stroke-miterlimit:10;}
	.st1{fill:none;stroke:#000000;stroke-width:1.048;stroke-miterlimit:10;}
	.st2{fill:none;stroke:#000000;stroke-miterlimit:10;}
</style>
<line class="st0" x1="15.03" y1="381.75" x2="237.51" y2="381.75"/>
<line class="st0" x1="15.03" y1="386.75" x2="237.51" y2="386.75"/>
<g>
	<g>
		<path d="M45.5,74.24c0-5.85,4.55-10.08,10.23-10.08c4.52,0,7.54,2.36,7.54,4.7c0,1.42-0.92,2.39-2.13,2.39
			c-1.33,0-2.25-0.83-2.25-2.1c0-0.38,0.09-0.77,0.21-1c-0.56-0.44-1.68-0.89-3.46-0.89c-3.78,0-6.68,2.9-6.68,6.95
			c0,3.9,2.72,7,6.83,7c2.28,0,4.14-1,5.59-2.57l2.22,2.31c-1.89,2.1-4.7,3.37-7.8,3.37C49.79,84.31,45.5,80.3,45.5,74.24z"/>
		<path d="M65.65,74.24c0-5.7,4.14-10.08,10.05-10.08c5.88,0,9.9,4.4,9.9,10.08c0,5.7-4.14,10.08-10.05,10.08
			C69.67,84.31,65.65,79.91,65.65,74.24z M82.15,74.24c0-4.05-2.75-6.98-6.5-6.98c-3.78,0-6.53,2.9-6.53,6.98
			c0,4.05,2.75,6.98,6.53,6.98C79.4,81.21,82.15,78.32,82.15,74.24z"/>
		<path d="M88.32,74.24c0-5.85,4.55-10.08,10.23-10.08c4.52,0,7.54,2.36,7.54,4.7c0,1.42-0.92,2.39-2.13,2.39
			c-1.33,0-2.25-0.83-2.25-2.1c0-0.38,0.09-0.77,0.21-1c-0.56-0.44-1.68-0.89-3.46-0.89c-3.78,0-6.68,2.9-6.68,6.95
			c0,3.9,2.72,7,6.83,7c2.28,0,4.14-1,5.59-2.57l2.22,2.31c-1.89,2.1-4.7,3.37-7.8,3.37C92.61,84.31,88.32,80.3,88.32,74.24z"/>
		<path d="M108.8,80.97h2.22V67.5h-2.22v-2.99h7.98v2.93h-2.42v6.59l6.53-6.59h-2.22v-2.93h8.57v2.99h-2.1l-5.44,5.35l4.97,8.13
			h2.57v2.99h-4.67l-5.41-8.87l-2.81,2.75v3.13h2.42v2.99h-7.98V80.97z"/>
		<path d="M132.86,80.97h2.42V67.41h-3.61v3.07h-3.16v-5.97h16.88v5.97h-3.16v-3.07h-3.61v13.57h2.42v2.99h-8.19V80.97z"/>
		<path d="M144.97,80.97h1.68l4.85-13.51h-2.13v-2.96h11v2.96h-2.13l4.85,13.51h1.68v2.99h-7.48V81h2.25l-1.09-3.19h-7.27L150.09,81
			h2.36v2.96h-7.48V80.97z M157.54,75.03l-2.72-7.66l-2.72,7.66H157.54z"/>
		<path d="M166.25,80.97h2.36V67.5h-2.36v-2.99h8.07v2.99h-2.36v13.48h2.36v2.99h-8.07V80.97z"/>
		<path d="M176.51,80.97h2.22V67.5h-2.22v-2.99h8.13v2.99h-2.57V81h5.35v-2.75h3.22v5.7h-14.13V80.97z"/>
		<path d="M192.64,79.79c0-1.39,0.83-2.31,2.04-2.31c1.3,0,2.13,0.98,2.13,1.92c0,0.47-0.09,0.83-0.27,1.18
			c0.71,0.5,1.8,0.83,3.07,0.83c2.13,0,3.49-0.95,3.49-2.63c0-1.6-1.63-2.36-3.58-3.04c-3.61-1.3-6.15-2.45-6.15-6.06
			c0-3.1,2.51-5.53,6.44-5.53c3.64,0,6.44,1.86,6.44,4.2c0,1.39-0.86,2.19-1.98,2.19c-1.36,0-2.13-1-2.13-1.98
			c0-0.47,0.09-0.68,0.21-0.92c-0.53-0.33-1.36-0.59-2.57-0.59c-1.92,0-3.04,0.98-3.04,2.39c0,1.6,1.63,2.31,3.58,3.01
			c3.49,1.24,6.12,2.45,6.12,6.06c0,3.69-2.87,5.79-6.86,5.79C195.74,84.31,192.64,82.16,192.64,79.79z"/>
	</g>
	<line class="st1" x1="44.14" y1="57.72" x2="207.86" y2="57.72"/>
	<line class="st1" x1="44.14" y1="90.75" x2="207.86" y2="90.75"/>
	<g>
		<g>
			<line class="st1" x1="214.92" y1="74.24" x2="237.24" y2="74.24"/>
			<line class="st1" x1="214.92" y1="69.23" x2="229.99" y2="69.23"/>
			<line class="st1" x1="214.92" y1="79.24" x2="229.99" y2="79.24"/>
		</g>
		<g>
			<line class="st1" x1="37.08" y1="74.24" x2="14.76" y2="74.24"/>
			<line class="st1" x1="37.08" y1="79.24" x2="22.01" y2="79.24"/>
			<line class="st1" x1="37.08" y1="69.23" x2="22.01" y2="69.23"/>
		</g>
	</g>
	<circle class="st2" cx="126" cy="19.28" r="7.92"/>
	<path class="st1" d="M141.47,23.42c-1.83,6.83-8.06,11.87-15.47,11.87s-13.64-5.03-15.47-11.87"/>
	<line class="st1" x1="126" y1="40.29" x2="126" y2="50.22"/>
	<line class="st1" x1="120.56" y1="39.58" x2="117.99" y2="49.17"/>
	<line class="st1" x1="115.49" y1="37.48" x2="110.53" y2="46.08"/>
	<line class="st1" x1="111.14" y1="34.14" x2="104.12" y2="41.16"/>
	<line class="st1" x1="107.8" y1="29.79" x2="99.2" y2="34.75"/>
	<line class="st1" x1="105.7" y1="24.72" x2="96.11" y2="27.29"/>
	<line class="st1" x1="131.44" y1="39.58" x2="134.01" y2="49.17"/>
	<line class="st1" x1="136.51" y1="37.48" x2="141.47" y2="46.08"/>
	<line class="st1" x1="140.86" y1="34.14" x2="147.88" y2="41.16"/>
	<line class="st1" x1="144.2" y1="29.79" x2="152.8" y2="34.75"/>
	<line class="st1" x1="146.3" y1="24.72" x2="155.89" y2="27.29"/>
</g>
<g>
	<path d="M85.18,112.04c0.05,0.14,0.12,0.2,0.2,0.2s0.14-0.07,0.2-0.21l3.56-8.62c0.05-0.1,0.12-0.15,0.21-0.15
		c0.17,0,0.26,0.09,0.26,0.27c0,0.05-0.01,0.08-0.02,0.12c-1.13,2.89-2.62,6.58-4.47,11.07c-0.08,0.19-0.2,0.29-0.36,0.29
		c-0.15,0-0.25-0.07-0.31-0.22l-1.83-4.44c-0.06-0.16-0.12-0.16-0.2,0l-1.79,4.37c-0.08,0.19-0.2,0.29-0.36,0.29
		c-0.15,0-0.25-0.07-0.31-0.22l-4.52-11.05c-0.02-0.07-0.03-0.13-0.03-0.18c0-0.21,0.29-0.31,0.87-0.3
		c0.61,0.01,0.97,0.14,1.08,0.39c0.73,1.84,1.85,4.63,3.34,8.39c0.06,0.14,0.13,0.2,0.21,0.2c0.08,0,0.15-0.07,0.21-0.2l1.01-2.45
		c0.06-0.15,0.05-0.31-0.03-0.48c-0.9-2.19-1.63-3.98-2.18-5.37c-0.02-0.07-0.03-0.13-0.03-0.18c0-0.21,0.29-0.31,0.87-0.3
		c0.61,0.01,0.97,0.14,1.07,0.39l1.18,2.96c0.05,0.1,0.1,0.15,0.16,0.15c0.08,0,0.15-0.05,0.19-0.15l1.31-3.2
		c0.04-0.1,0.11-0.15,0.2-0.15c0.17,0,0.25,0.09,0.25,0.27c0,0.05-0.01,0.08-0.02,0.12c-0.49,1.26-1,2.55-1.55,3.88
		c-0.06,0.16-0.06,0.31,0,0.46L85.18,112.04z"/>
	<path d="M94.16,106.96h4.33c0.17,0,0.27,0.01,0.31,0.02c0.08,0.02,0.12,0.1,0.12,0.23c0,0.13-0.04,0.21-0.12,0.23
		c-0.02,0.01-0.12,0.02-0.31,0.02h-4.37c-0.17,0-0.25,0.07-0.25,0.22v6.63c0,0.11,0.07,0.17,0.2,0.17h4.1c0.2,0,0.33,0.02,0.37,0.05
		c0.04,0.03,0.06,0.1,0.06,0.2c0,0.12-0.04,0.2-0.12,0.22c-0.02,0.01-0.12,0.02-0.31,0.02h-5.24c-0.62,0-0.93-0.14-0.93-0.42v-10.83
		c0-0.28,0.31-0.43,0.93-0.43h4.98c0.17,0,0.27,0.01,0.31,0.02c0.08,0.02,0.12,0.1,0.12,0.22c0,0.12-0.04,0.2-0.12,0.22
		c-0.02,0-0.12,0-0.31,0h-3.79c-0.17,0-0.25,0.08-0.25,0.24v2.72C93.87,106.88,93.97,106.96,94.16,106.96z"/>
	<path d="M103.07,114.27c0,0.15,0.08,0.22,0.25,0.22h4.03c0.18,0,0.28,0.01,0.31,0.02c0.08,0.02,0.12,0.1,0.12,0.22
		c0,0.12-0.04,0.2-0.12,0.22c-0.03,0.01-0.14,0.02-0.31,0.02h-5.22c-0.62,0-0.93-0.14-0.93-0.42v-10.83c0-0.28,0.31-0.43,0.93-0.43
		s0.94,0.14,0.94,0.43V114.27z"/>
	<path d="M119.61,112.71c-0.51,0.77-1.15,1.37-1.92,1.8c-0.83,0.48-1.73,0.71-2.7,0.71c-1.75,0-3.16-0.54-4.23-1.63
		c-1.08-1.09-1.62-2.5-1.62-4.23c0-1.68,0.56-3.13,1.69-4.35s2.51-1.84,4.16-1.84c1.85,0,3.23,0.59,4.15,1.78
		c0.12,0.17,0.19,0.27,0.19,0.31c0,0.17-0.07,0.25-0.22,0.25c-0.08,0-0.18-0.07-0.31-0.2c-1.1-1.18-2.3-1.77-3.6-1.77
		c-1.39,0-2.45,0.6-3.18,1.8c-0.62,1.03-0.93,2.37-0.93,4.01c0,1.68,0.33,2.99,1,3.93c0.7,0.99,1.73,1.48,3.08,1.48
		c0.83,0,1.6-0.22,2.32-0.65c0.72-0.44,1.31-1.04,1.78-1.81c0.09-0.16,0.16-0.24,0.22-0.24c0.05,0,0.1,0.02,0.17,0.07
		c0.12,0.09,0.19,0.14,0.19,0.15C119.83,112.34,119.75,112.48,119.61,112.71z"/>
	<path d="M121.8,109.35c0-1.68,0.56-3.12,1.69-4.35c1.13-1.22,2.51-1.83,4.16-1.83c1.71,0,3.07,0.57,4.08,1.71
		c1.01,1.14,1.51,2.62,1.51,4.43c0,1.64-0.52,3.02-1.56,4.12c-1.04,1.11-2.39,1.66-4.03,1.66c-1.76,0-3.17-0.53-4.24-1.59
		C122.34,112.46,121.8,111.07,121.8,109.35z M123.74,109.35c0,1.67,0.33,2.98,1,3.92c0.7,0.98,1.73,1.48,3.08,1.48
		c1.37,0,2.54-0.54,3.5-1.61c0.96-1.08,1.44-2.34,1.44-3.79c0-1.58-0.44-2.93-1.31-4.04c-0.93-1.18-2.13-1.77-3.6-1.77
		c-1.39,0-2.45,0.6-3.18,1.8C124.05,106.37,123.74,107.71,123.74,109.35z"/>
	<path d="M136.18,107.57c-0.12,0-0.19,0.1-0.19,0.31v6.66c0,0.17-0.01,0.27-0.02,0.31c-0.02,0.08-0.1,0.12-0.22,0.12
		s-0.2-0.04-0.22-0.12c-0.01-0.02-0.02-0.12-0.02-0.31v-10.86c0-0.18,0.01-0.29,0.03-0.32c0.02-0.03,0.09-0.07,0.21-0.1
		c0.16-0.05,0.31,0.05,0.44,0.29c2.21,4.07,3.82,7.01,4.83,8.82c0.07,0.14,0.14,0.2,0.22,0.2c0.07,0,0.14-0.06,0.2-0.19l4.78-8.87
		c0.09-0.17,0.21-0.25,0.36-0.25c0.19,0,0.29,0.15,0.29,0.46v10.83c0,0.28-0.31,0.42-0.93,0.42c-0.62,0-0.94-0.14-0.94-0.42v-7.09
		c0-0.17-0.03-0.25-0.1-0.25c-0.06,0-0.11,0.06-0.17,0.17c-2.47,4.61-3.77,7.04-3.91,7.29c-0.07,0.11-0.14,0.17-0.22,0.17
		c-0.09,0-0.18-0.07-0.25-0.2c-1.26-2.15-2.56-4.44-3.89-6.85C136.38,107.64,136.29,107.57,136.18,107.57z"/>
	<path d="M150.58,114.97c-0.62,0-0.93-0.14-0.93-0.42v-10.83c0-0.28,0.31-0.43,0.93-0.43c0.62,0,0.94,0.14,0.94,0.43v10.83
		C151.52,114.83,151.21,114.97,150.58,114.97z"/>
	<path d="M154.53,103.44c1.59,0.97,3.9,2.37,6.94,4.2c0.14,0.09,0.22,0.14,0.24,0.14c0.08,0,0.11-0.12,0.11-0.36v-3.71
		c0-0.17,0-0.27,0-0.31c0.02-0.08,0.1-0.12,0.23-0.12c0.13,0,0.21,0.04,0.23,0.12c0.01,0.03,0.02,0.14,0.02,0.31v10.83
		c0,0.17-0.01,0.27-0.02,0.31c-0.02,0.08-0.1,0.12-0.23,0.12c-0.13,0-0.21-0.04-0.23-0.12c0-0.02,0-0.12,0-0.31v-4.33
		c0-0.18-0.07-0.32-0.2-0.41c-1.26-0.79-3.52-2.14-6.79-4.05c-0.11-0.07-0.21-0.1-0.29-0.1c-0.11,0-0.17,0.08-0.17,0.24v8.65
		c0,0.17-0.01,0.27-0.02,0.31c-0.02,0.08-0.1,0.12-0.22,0.12c-0.12,0-0.2-0.04-0.22-0.12c-0.01-0.02-0.02-0.12-0.02-0.31v-10.83
		c0-0.17,0.01-0.27,0.02-0.31c0.02-0.08,0.1-0.12,0.22-0.12C154.24,103.29,154.37,103.34,154.53,103.44z"/>
	<path d="M175.4,111.67c0-0.12-0.14-0.19-0.42-0.19h-4.1c-0.26,0-0.39-0.22-0.39-0.66c0-0.42,0.11-0.63,0.34-0.63h4.86
		c0.42,0,0.61,0.1,0.58,0.31c-0.24,1.38-0.86,2.52-1.85,3.4c-1,0.88-2.2,1.33-3.6,1.33c-1.75,0-3.16-0.54-4.23-1.63
		c-1.08-1.09-1.62-2.5-1.62-4.23c0-1.68,0.56-3.13,1.69-4.35s2.51-1.84,4.16-1.84c1.85,0,3.23,0.59,4.15,1.78
		c0.12,0.17,0.19,0.27,0.19,0.31c0,0.17-0.07,0.25-0.22,0.25c-0.08,0-0.18-0.07-0.31-0.2c-1.1-1.18-2.3-1.77-3.6-1.77
		c-1.39,0-2.45,0.6-3.18,1.8c-0.62,1.03-0.94,2.37-0.94,4.01c0,1.68,0.33,2.99,1,3.93c0.7,0.99,1.73,1.48,3.08,1.48
		c0.84,0,1.76-0.3,2.75-0.9C174.85,113.18,175.4,112.45,175.4,111.67z"/>
</g>
</svg>
