<?xml version="1.0" encoding="utf-8"?>
<!-- Generator: Adobe Illustrator 27.1.1, SVG Export Plug-In . SVG Version: 6.00 Build 0)  -->
<svg version="1.1" id="Layer_1" xmlns="http://www.w3.org/2000/svg" xmlns:xlink="http://www.w3.org/1999/xlink" x="0px" y="0px"
	 viewBox="0 0 252 133" style="enable-background:new 0 0 252 133;" xml:space="preserve">
<style type="text/css">
	.st0{fill:none;stroke:#FF0000;stroke-width:1.048;stroke-miterlimit:10;}
	.st1{fill:none;stroke:#000000;stroke-width:1.048;stroke-miterlimit:10;}
	.st2{fill:none;stroke:#000000;stroke-miterlimit:10;}
</style>
<line class="st0" x1="15.03" y1="381.75" x2="237.51" y2="381.75"/>
<line class="st0" x1="15.03" y1="386.75" x2="237.51" y2="386.75"/>
<g>
	<g>
		<path d="M45.5,74.24c0-5.85,4.55-10.08,10.23-10.08c4.52,0,7.54,2.36,7.54,4.7c0,1.42-0.92,2.39-2.13,2.39
			c-1.33,0-2.25-0.83-2.25-2.1c0-0.38,0.09-0.77,0.21-1c-0.56-0.44-1.68-0.89-3.46-0.89c-3.78,0-6.68,2.9-6.68,6.95
			c0,3.9,2.72,7,6.83,7c2.28,0,4.14-1,5.59-2.57l2.22,2.31c-1.89,2.1-4.7,3.37-7.8,3.37C49.79,84.31,45.5,80.3,45.5,74.24z"/>
		<path d="M65.65,74.24c0-5.7,4.14-10.08,10.05-10.08c5.88,0,9.9,4.4,9.9,10.08c0,5.7-4.14,10.08-10.05,10.08
			C69.67,84.31,65.65,79.91,65.65,74.24z M82.15,74.24c0-4.05-2.75-6.98-6.5-6.98c-3.78,0-6.53,2.9-6.53,6.98
			c0,4.05,2.75,6.98,6.53,6.98C79.4,81.21,82.15,78.32,82.15,74.24z"/>
		<path d="M88.32,74.24c0-5.85,4.55-10.08,10.23-10.08c4.52,0,7.54,2.36,7.54,4.7c0,1.42-0.92,2.39-2.13,2.39
			c-1.33,0-2.25-0.83-2.25-2.1c0-0.38,0.09-0.77,0.21-1c-0.56-0.44-1.68-0.89-3.46-0.89c-3.78,0-6.68,2.9-6.68,6.95
			c0,3.9,2.72,7,6.83,7c2.28,0,4.14-1,5.59-2.57l2.22,2.31c-1.89,2.1-4.7,3.37-7.8,3.37C92.61,84.31,88.32,80.3,88.32,74.24z"/>
		<path d="M108.8,80.97h2.22V67.5h-2.22v-2.99h7.98v2.93h-2.42v6.59l6.53-6.59h-2.22v-2.93h8.57v2.99h-2.1l-5.44,5.35l4.97,8.13
			h2.57v2.99h-4.67l-5.41-8.87l-2.81,2.75v3.13h2.42v2.99h-7.98V80.97z"/>
		<path d="M132.86,80.97h2.42V67.41h-3.61v3.07h-3.16v-5.97h16.88v5.97h-3.16v-3.07h-3.61v13.57h2.42v2.99h-8.19V80.97z"/>
		<path d="M144.97,80.97h1.68l4.85-13.51h-2.13v-2.96h11v2.96h-2.13l4.85,13.51h1.68v2.99h-7.48V81h2.25l-1.09-3.19h-7.27L150.09,81
			h2.36v2.96h-7.48V80.97z M157.54,75.03l-2.72-7.66l-2.72,7.66H157.54z"/>
		<path d="M166.25,80.97h2.36V67.5h-2.36v-2.99h8.07v2.99h-2.36v13.48h2.36v2.99h-8.07V80.97z"/>
		<path d="M176.51,80.97h2.22V67.5h-2.22v-2.99h8.13v2.99h-2.57V81h5.35v-2.75h3.22v5.7h-14.13V80.97z"/>
		<path d="M192.64,79.79c0-1.39,0.83-2.31,2.04-2.31c1.3,0,2.13,0.98,2.13,1.92c0,0.47-0.09,0.83-0.27,1.18
			c0.71,0.5,1.8,0.83,3.07,0.83c2.13,0,3.49-0.95,3.49-2.63c0-1.6-1.63-2.36-3.58-3.04c-3.61-1.3-6.15-2.45-6.15-6.06
			c0-3.1,2.51-5.53,6.44-5.53c3.64,0,6.44,1.86,6.44,4.2c0,1.39-0.86,2.19-1.98,2.19c-1.36,0-2.13-1-2.13-1.98
			c0-0.47,0.09-0.68,0.21-0.92c-0.53-0.33-1.36-0.59-2.57-0.59c-1.92,0-3.04,0.98-3.04,2.39c0,1.6,1.63,2.31,3.58,3.01
			c3.49,1.24,6.12,2.45,6.12,6.06c0,3.69-2.87,5.79-6.86,5.79C195.74,84.31,192.64,82.16,192.64,79.79z"/>
	</g>
	<line class="st1" x1="44.14" y1="57.72" x2="207.86" y2="57.72"/>
	<line class="st1" x1="44.14" y1="90.75" x2="207.86" y2="90.75"/>
	<g>
		<g>
			<line class="st1" x1="214.92" y1="74.24" x2="237.24" y2="74.24"/>
			<line class="st1" x1="214.92" y1="69.23" x2="229.99" y2="69.23"/>
			<line class="st1" x1="214.92" y1="79.24" x2="229.99" y2="79.24"/>
		</g>
		<g>
			<line class="st1" x1="37.08" y1="74.24" x2="14.76" y2="74.24"/>
			<line class="st1" x1="37.08" y1="79.24" x2="22.01" y2="79.24"/>
			<line class="st1" x1="37.08" y1="69.23" x2="22.01" y2="69.23"/>
		</g>
	</g>
	<circle class="st2" cx="126" cy="19.28" r="7.92"/>
	<path class="st1" d="M141.47,23.42c-1.83,6.83-8.06,11.87-15.47,11.87s-13.64-5.03-15.47-11.87"/>
	<line class="st1" x1="126" y1="40.29" x2="126" y2="50.22"/>
	<line class="st1" x1="120.56" y1="39.58" x2="117.99" y2="49.17"/>
	<line class="st1" x1="115.49" y1="37.48" x2="110.53" y2="46.08"/>
	<line class="st1" x1="111.14" y1="34.14" x2="104.12" y2="41.16"/>
	<line class="st1" x1="107.8" y1="29.79" x2="99.2" y2="34.75"/>
	<line class="st1" x1="105.7" y1="24.72" x2="96.11" y2="27.29"/>
	<line class="st1" x1="131.44" y1="39.58" x2="134.01" y2="49.17"/>
	<line class="st1" x1="136.51" y1="37.48" x2="141.47" y2="46.08"/>
	<line class="st1" x1="140.86" y1="34.14" x2="147.88" y2="41.16"/>
	<line class="st1" x1="144.2" y1="29.79" x2="152.8" y2="34.75"/>
	<line class="st1" x1="146.3" y1="24.72" x2="155.89" y2="27.29"/>
</g>
<g>
	<path d="M101.07,118.4l-1.98-4.87c-0.03-0.11-0.11-0.16-0.24-0.16h-6.24c-0.11,0-0.19,0.06-0.24,0.17
		c-0.82,1.89-1.56,3.62-2.24,5.2c-0.05,0.15-0.14,0.23-0.29,0.23c-0.24,0-0.36-0.13-0.36-0.38c0-0.05,0.02-0.1,0.05-0.17
		c0.44-1.03,1.15-2.67,2.13-4.91c0.03-0.09-0.02-0.14-0.14-0.14h-1.04c-0.24,0-0.37,0-0.4,0c-0.11-0.03-0.17-0.13-0.19-0.31
		c0-0.17,0.06-0.28,0.19-0.31c0.03-0.02,0.17-0.02,0.4-0.02h1.25c0.17,0,0.29-0.06,0.35-0.19l4.14-9.52
		c0.12-0.25,0.29-0.38,0.5-0.38c0.21,0,0.35,0.09,0.43,0.28l6.57,15.35c0.05,0.09,0.07,0.18,0.07,0.26c0,0.3-0.41,0.44-1.23,0.43
		C101.7,118.95,101.21,118.76,101.07,118.4z M98.69,112.54c-0.88-2.14-1.74-4.21-2.57-6.19c-0.08-0.2-0.18-0.3-0.31-0.3
		c-0.1,0-0.18,0.1-0.26,0.31c-0.59,1.36-1.49,3.42-2.69,6.2c-0.06,0.12-0.04,0.18,0.07,0.18h5.69
		C98.71,112.73,98.74,112.67,98.69,112.54z"/>
	<path d="M108.37,118.97c-0.87,0-1.3-0.2-1.3-0.59v-15.05c0-0.39,0.43-0.59,1.3-0.59h3.85c2.38,0,4.31,0.77,5.79,2.31
		c1.48,1.54,2.22,3.49,2.22,5.83c0,2.43-0.89,4.4-2.67,5.93c-1.68,1.43-3.74,2.15-6.17,2.15H108.37z M109.67,103.8v14.15
		c0,0.22,0.11,0.33,0.33,0.33h1.79c2.03,0,3.81-0.67,5.34-2.01c1.62-1.42,2.43-3.19,2.43-5.32c0-2.15-0.75-3.96-2.24-5.44
		c-1.43-1.42-3.15-2.14-5.15-2.18c-1.09-0.02-1.85,0.03-2.29,0.14C109.74,103.51,109.67,103.62,109.67,103.8z"/>
	<path d="M130.38,118.47c1.59,0,2.83-0.66,3.73-1.99c0.83-1.23,1.25-2.83,1.25-4.79v-8.57c0-0.22,0.1-0.35,0.31-0.38
		c0.27-0.03,0.4,0.11,0.4,0.43v8.15c0,2.46-0.52,4.37-1.56,5.71c-1.1,1.42-2.7,2.13-4.79,2.13c-2.57,0-4.39-1.02-5.46-3.05
		c-0.65-1.23-0.97-2.64-0.97-4.23v-8.54c0-0.39,0.43-0.59,1.3-0.59c0.87,0,1.3,0.2,1.3,0.59v9.55c0,1.55,0.22,2.74,0.66,3.58
		C127.25,117.8,128.52,118.47,130.38,118.47z"/>
	<path d="M141.96,118c0,0.2,0.12,0.31,0.35,0.31h5.6c0.25,0,0.39,0.01,0.43,0.02c0.11,0.03,0.17,0.13,0.17,0.31
		s-0.06,0.28-0.17,0.31c-0.05,0.02-0.19,0.02-0.43,0.02h-7.25c-0.87,0-1.3-0.2-1.3-0.59v-15.05c0-0.39,0.43-0.59,1.3-0.59
		c0.87,0,1.3,0.2,1.3,0.59V118z"/>
	<path d="M161.54,103.38h-3.78v15c0,0.39-0.43,0.59-1.3,0.59s-1.3-0.2-1.3-0.59v-15h-3.78c-0.24,0-0.38,0-0.42,0
		c-0.11-0.03-0.17-0.13-0.17-0.31s0.06-0.28,0.17-0.31c0.05-0.02,0.19-0.02,0.42-0.02h10.16c0.39,0,0.59,0.09,0.59,0.26
		C162.13,103.25,161.93,103.38,161.54,103.38z"/>
</g>
</svg>
