<?xml version="1.0" encoding="utf-8"?>
<!-- Generator: Adobe Illustrator 27.1.1, SVG Export Plug-In . SVG Version: 6.00 Build 0)  -->
<svg version="1.1" id="Layer_1" xmlns="http://www.w3.org/2000/svg" xmlns:xlink="http://www.w3.org/1999/xlink" x="0px" y="0px"
	 viewBox="0 0 252 133" style="enable-background:new 0 0 252 133;" xml:space="preserve">
<style type="text/css">
	.st0{fill:none;stroke:#FF0000;stroke-width:1.048;stroke-miterlimit:10;}
	.st1{fill:none;stroke:#000000;stroke-width:1.048;stroke-miterlimit:10;}
	.st2{fill:none;stroke:#000000;stroke-miterlimit:10;}
</style>
<line class="st0" x1="15.03" y1="381.75" x2="237.51" y2="381.75"/>
<line class="st0" x1="15.03" y1="386.75" x2="237.51" y2="386.75"/>
<g>
	<g>
		<path d="M45.5,74.24c0-5.85,4.55-10.08,10.23-10.08c4.52,0,7.54,2.36,7.54,4.7c0,1.42-0.92,2.39-2.13,2.39
			c-1.33,0-2.25-0.83-2.25-2.1c0-0.38,0.09-0.77,0.21-1c-0.56-0.44-1.68-0.89-3.46-0.89c-3.78,0-6.68,2.9-6.68,6.95
			c0,3.9,2.72,7,6.83,7c2.28,0,4.14-1,5.59-2.57l2.22,2.31c-1.89,2.1-4.7,3.37-7.8,3.37C49.79,84.31,45.5,80.3,45.5,74.24z"/>
		<path d="M65.65,74.24c0-5.7,4.14-10.08,10.05-10.08c5.88,0,9.9,4.4,9.9,10.08c0,5.7-4.14,10.08-10.05,10.08
			C69.67,84.31,65.65,79.91,65.65,74.24z M82.15,74.24c0-4.05-2.75-6.98-6.5-6.98c-3.78,0-6.53,2.9-6.53,6.98
			c0,4.05,2.75,6.98,6.53,6.98C79.4,81.21,82.15,78.32,82.15,74.24z"/>
		<path d="M88.32,74.24c0-5.85,4.55-10.08,10.23-10.08c4.52,0,7.54,2.36,7.54,4.7c0,1.42-0.92,2.39-2.13,2.39
			c-1.33,0-2.25-0.83-2.25-2.1c0-0.38,0.09-0.77,0.21-1c-0.56-0.44-1.68-0.89-3.46-0.89c-3.78,0-6.68,2.9-6.68,6.95
			c0,3.9,2.72,7,6.83,7c2.28,0,4.14-1,5.59-2.57l2.22,2.31c-1.89,2.1-4.7,3.37-7.8,3.37C92.61,84.31,88.32,80.3,88.32,74.24z"/>
		<path d="M108.8,80.97h2.22V67.5h-2.22v-2.99h7.98v2.93h-2.42v6.59l6.53-6.59h-2.22v-2.93h8.57v2.99h-2.1l-5.44,5.35l4.97,8.13
			h2.57v2.99h-4.67l-5.41-8.87l-2.81,2.75v3.13h2.42v2.99h-7.98V80.97z"/>
		<path d="M132.86,80.97h2.42V67.41h-3.61v3.07h-3.16v-5.97h16.88v5.97h-3.16v-3.07h-3.61v13.57h2.42v2.99h-8.19V80.97z"/>
		<path d="M144.97,80.97h1.68l4.85-13.51h-2.13v-2.96h11v2.96h-2.13l4.85,13.51h1.68v2.99h-7.48V81h2.25l-1.09-3.19h-7.27L150.09,81
			h2.36v2.96h-7.48V80.97z M157.54,75.03l-2.72-7.66l-2.72,7.66H157.54z"/>
		<path d="M166.25,80.97h2.36V67.5h-2.36v-2.99h8.07v2.99h-2.36v13.48h2.36v2.99h-8.07V80.97z"/>
		<path d="M176.51,80.97h2.22V67.5h-2.22v-2.99h8.13v2.99h-2.57V81h5.35v-2.75h3.22v5.7h-14.13V80.97z"/>
		<path d="M192.64,79.79c0-1.39,0.83-2.31,2.04-2.31c1.3,0,2.13,0.98,2.13,1.92c0,0.47-0.09,0.83-0.27,1.18
			c0.71,0.5,1.8,0.83,3.07,0.83c2.13,0,3.49-0.95,3.49-2.63c0-1.6-1.63-2.36-3.58-3.04c-3.61-1.3-6.15-2.45-6.15-6.06
			c0-3.1,2.51-5.53,6.44-5.53c3.64,0,6.44,1.86,6.44,4.2c0,1.39-0.86,2.19-1.98,2.19c-1.36,0-2.13-1-2.13-1.98
			c0-0.47,0.09-0.68,0.21-0.92c-0.53-0.33-1.36-0.59-2.57-0.59c-1.92,0-3.04,0.98-3.04,2.39c0,1.6,1.63,2.31,3.58,3.01
			c3.49,1.24,6.12,2.45,6.12,6.06c0,3.69-2.87,5.79-6.86,5.79C195.74,84.31,192.64,82.16,192.64,79.79z"/>
	</g>
	<line class="st1" x1="44.14" y1="57.72" x2="207.86" y2="57.72"/>
	<line class="st1" x1="44.14" y1="90.75" x2="207.86" y2="90.75"/>
	<g>
		<g>
			<line class="st1" x1="214.92" y1="74.24" x2="237.24" y2="74.24"/>
			<line class="st1" x1="214.92" y1="69.23" x2="229.99" y2="69.23"/>
			<line class="st1" x1="214.92" y1="79.24" x2="229.99" y2="79.24"/>
		</g>
		<g>
			<line class="st1" x1="37.08" y1="74.24" x2="14.76" y2="74.24"/>
			<line class="st1" x1="37.08" y1="79.24" x2="22.01" y2="79.24"/>
			<line class="st1" x1="37.08" y1="69.23" x2="22.01" y2="69.23"/>
		</g>
	</g>
	<circle class="st2" cx="126" cy="19.28" r="7.92"/>
	<path class="st1" d="M141.47,23.42c-1.83,6.83-8.06,11.87-15.47,11.87s-13.64-5.03-15.47-11.87"/>
	<line class="st1" x1="126" y1="40.29" x2="126" y2="50.22"/>
	<line class="st1" x1="120.56" y1="39.58" x2="117.99" y2="49.17"/>
	<line class="st1" x1="115.49" y1="37.48" x2="110.53" y2="46.08"/>
	<line class="st1" x1="111.14" y1="34.14" x2="104.12" y2="41.16"/>
	<line class="st1" x1="107.8" y1="29.79" x2="99.2" y2="34.75"/>
	<line class="st1" x1="105.7" y1="24.72" x2="96.11" y2="27.29"/>
	<line class="st1" x1="131.44" y1="39.58" x2="134.01" y2="49.17"/>
	<line class="st1" x1="136.51" y1="37.48" x2="141.47" y2="46.08"/>
	<line class="st1" x1="140.86" y1="34.14" x2="147.88" y2="41.16"/>
	<line class="st1" x1="144.2" y1="29.79" x2="152.8" y2="34.75"/>
	<line class="st1" x1="146.3" y1="24.72" x2="155.89" y2="27.29"/>
</g>
<g>
	<path d="M107.82,114.74c1.09-0.39,1.97-0.98,2.65-1.77c0.79-0.93,1.18-2,1.18-3.21c0-1.18-0.3-2.24-0.91-3.17
		c-0.61-0.93-1.43-1.66-2.47-2.2c-1.17-0.6-2.59-0.9-4.28-0.9c-0.54,0-0.8,0.16-0.8,0.47v14.41c0,0.39-0.43,0.59-1.3,0.59
		s-1.3-0.2-1.3-0.59v-15.05c0-0.39,0.43-0.59,1.3-0.59c0.22,0,0.41,0.01,0.57,0.02c0.96,0.03,1.59,0.06,1.89,0.07
		c0.88,0.06,1.68,0.17,2.39,0.31c1.46,0.28,2.72,0.94,3.78,1.98c1.24,1.21,1.87,2.69,1.87,4.44c0,1.39-0.42,2.61-1.25,3.66
		c-0.76,0.94-1.73,1.64-2.93,2.08c-0.14,0.06-0.17,0.16-0.07,0.28c1.43,1.98,2.68,2.98,3.76,2.98c0.49,0,0.73,0.09,0.73,0.26
		c0,0.25-0.23,0.38-0.69,0.38c-1.13,0-2.25-0.62-3.35-1.87c-0.27-0.3-0.63-0.81-1.09-1.54c-0.09-0.16-0.22-0.22-0.38-0.19
		c-0.39,0.08-0.79,0.12-1.18,0.12c-0.52,0-1.02-0.17-1.51-0.5c-0.49-0.33-0.73-0.71-0.73-1.12c0-0.33,0.14-0.6,0.41-0.8
		c0.28-0.2,0.59-0.3,0.96-0.3c0.77,0,1.54,0.52,2.32,1.56C107.5,114.73,107.65,114.79,107.82,114.74z M104.35,114.17
		c0,0.25,0.16,0.47,0.47,0.65c0.31,0.18,0.65,0.27,0.99,0.27c0.3,0,0.61-0.02,0.92-0.07c0.14-0.03,0.17-0.11,0.07-0.24
		c-0.55-0.72-1.13-1.09-1.75-1.09C104.59,113.7,104.35,113.86,104.35,114.17z"/>
	<path d="M116.78,118.97c-0.87,0-1.3-0.2-1.3-0.59v-15.05c0-0.39,0.43-0.59,1.3-0.59c0.87,0,1.3,0.2,1.3,0.59v15.05
		C118.08,118.77,117.64,118.97,116.78,118.97z"/>
	<path d="M135.77,115.83c-0.71,1.07-1.6,1.91-2.67,2.5c-1.15,0.66-2.4,0.99-3.76,0.99c-2.43,0-4.39-0.76-5.88-2.27
		c-1.5-1.51-2.24-3.47-2.24-5.88c0-2.33,0.78-4.35,2.35-6.05c1.57-1.7,3.49-2.55,5.78-2.55c2.57,0,4.49,0.83,5.76,2.48
		c0.17,0.24,0.26,0.38,0.26,0.43c0,0.24-0.1,0.35-0.31,0.35c-0.11,0-0.25-0.09-0.42-0.28c-1.53-1.64-3.2-2.46-5.01-2.46
		c-1.94,0-3.41,0.83-4.42,2.5c-0.87,1.43-1.3,3.29-1.3,5.57c0,2.33,0.46,4.15,1.39,5.46c0.98,1.37,2.4,2.05,4.28,2.05
		c1.15,0,2.22-0.3,3.22-0.91c1-0.61,1.82-1.44,2.47-2.52c0.13-0.22,0.23-0.33,0.31-0.33c0.06,0,0.14,0.03,0.24,0.09
		c0.17,0.13,0.26,0.2,0.26,0.21C136.07,115.32,135.97,115.51,135.77,115.83z"/>
	<path d="M150.18,118.97c-0.17,0-0.28-0.06-0.31-0.17c-0.02-0.03-0.02-0.17-0.02-0.42v-8.93c0-0.17-0.09-0.26-0.28-0.26h-7.75
		c-0.16,0-0.24,0.07-0.24,0.21v8.98c0,0.39-0.43,0.59-1.3,0.59c-0.87,0-1.3-0.2-1.3-0.59v-15.05c0-0.39,0.43-0.59,1.3-0.59
		c0.87,0,1.3,0.2,1.3,0.59v5.01c0,0.14,0.08,0.21,0.24,0.21h7.77c0.17,0,0.26-0.09,0.26-0.26v-4.96c0-0.24,0.01-0.38,0.02-0.43
		c0.03-0.11,0.13-0.17,0.31-0.17c0.17,0,0.28,0.06,0.31,0.17c0.02,0.05,0.02,0.19,0.02,0.43v15.05c0,0.24-0.01,0.38-0.02,0.42
		C150.45,118.91,150.35,118.97,150.18,118.97z"/>
</g>
</svg>
